<svg width="28" height="28" viewBox="0 0 28 28" fill="none" xmlns="http://www.w3.org/2000/svg">
<path d="M16.9148 4.66614H11.0821L8.16576 8.16575H4.66614C4.04737 8.16575 3.45395 8.41156 3.01641 8.84909C2.57887 9.28663 2.33307 9.88006 2.33307 10.4988V20.9977C2.33307 21.6164 2.57887 22.2099 3.01641 22.6474C3.45395 23.0849 4.04737 23.3307 4.66614 23.3307H23.3307C23.9495 23.3307 24.5429 23.0849 24.9805 22.6474C25.418 22.2099 25.6638 21.6164 25.6638 20.9977V10.4988C25.6638 9.88006 25.418 9.28663 24.9805 8.84909C24.5429 8.41156 23.9495 8.16575 23.3307 8.16575H19.8311L16.9148 4.66614Z" stroke="white" stroke-width="2.33308" stroke-linecap="round" stroke-linejoin="round"/>
<path d="M13.9985 18.6646C15.9312 18.6646 17.4981 17.0978 17.4981 15.165C17.4981 13.2322 15.9312 11.6654 13.9985 11.6654C12.0657 11.6654 10.4988 13.2322 10.4988 15.165C10.4988 17.0978 12.0657 18.6646 13.9985 18.6646Z" stroke="white" stroke-width="2.33308" stroke-linecap="round" stroke-linejoin="round"/>
</svg>
