<svg width="20" height="20" viewBox="0 0 20 20" fill="none" xmlns="http://www.w3.org/2000/svg">
<path d="M9.99763 2.49951H4.16566C3.72374 2.49951 3.29992 2.67507 2.98743 2.98755C2.67494 3.30004 2.49939 3.72386 2.49939 4.16579V15.8297C2.49939 16.2716 2.67494 16.6955 2.98743 17.0079C3.29992 17.3204 3.72374 17.496 4.16566 17.496H15.8296C16.2715 17.496 16.6953 17.3204 17.0078 17.0079C17.3203 16.6955 17.4959 16.2716 17.4959 15.8297V9.99775" stroke="#155DFC" stroke-width="1.66628" stroke-linecap="round" stroke-linejoin="round"/>
<path d="M15.3089 2.18708C15.6403 1.85564 16.0899 1.66943 16.5586 1.66943C17.0273 1.66943 17.4768 1.85564 17.8083 2.18708C18.1397 2.51852 18.3259 2.96805 18.3259 3.43679C18.3259 3.90552 18.1397 4.35505 17.8083 4.68649L10.2992 12.1964C10.1014 12.3941 9.857 12.5387 9.58856 12.6171L7.19495 13.317C7.12326 13.3379 7.04727 13.3391 6.97493 13.3206C6.90259 13.3021 6.83656 13.2644 6.78375 13.2116C6.73095 13.1588 6.69331 13.0928 6.67478 13.0204C6.65624 12.9481 6.6575 12.8721 6.67841 12.8004L7.37824 10.4068C7.45699 10.1386 7.60197 9.89448 7.79981 9.69698L15.3089 2.18708Z" stroke="#155DFC" stroke-width="1.66628" stroke-linecap="round" stroke-linejoin="round"/>
</svg>
