<svg width="48" height="48" viewBox="0 0 48 48" fill="none" xmlns="http://www.w3.org/2000/svg">
<path d="M24 44V26" stroke="#99A1AF" stroke-width="3.99935" stroke-linecap="round" stroke-linejoin="round"/>
<path d="M30.34 4.42011C30.8382 4.14159 31.3993 3.99536 31.97 3.99536C32.5407 3.99536 33.1019 4.14159 33.6 4.42011L42 9.14011C42.5949 9.47651 43.0899 9.96483 43.4342 10.5552C43.7786 11.1455 43.96 11.8167 43.96 12.5001C43.96 13.1835 43.7786 13.8547 43.4342 14.4451C43.0899 15.0354 42.5949 15.5237 42 15.8601L17.64 29.5801C17.1404 29.8651 16.5752 30.015 16 30.015C15.4249 30.015 14.8596 29.8651 14.36 29.5801L6.00004 24.8601C5.40514 24.5237 4.91021 24.0354 4.56585 23.4451C4.22149 22.8547 4.04004 22.1835 4.04004 21.5001C4.04004 20.8167 4.22149 20.1455 4.56585 19.5552C4.91021 18.9648 5.40514 18.4765 6.00004 18.1401L30.34 4.42011Z" stroke="#99A1AF" stroke-width="3.99935" stroke-linecap="round" stroke-linejoin="round"/>
<path d="M40 26V33.74C40.0008 34.4949 39.7941 35.2355 39.4026 35.8809C39.0111 36.5264 38.4498 37.0519 37.78 37.4L25.78 43.56C25.2302 43.8457 24.6196 43.9949 24 43.9949C23.3804 43.9949 22.7698 43.8457 22.22 43.56L10.22 37.4C9.55017 37.0519 8.98886 36.5264 8.59736 35.8809C8.20586 35.2355 7.99922 34.4949 8 33.74V26" stroke="#99A1AF" stroke-width="3.99935" stroke-linecap="round" stroke-linejoin="round"/>
<path d="M42 24.86C42.5949 24.5236 43.0899 24.0353 43.4342 23.4449C43.7786 22.8546 43.96 22.1834 43.96 21.5C43.96 20.8166 43.7786 20.1454 43.4342 19.5551C43.0899 18.9647 42.5949 18.4764 42 18.14L17.66 4.4C17.1638 4.11581 16.6019 3.96631 16.03 3.96631C15.4582 3.96631 14.8963 4.11581 14.4 4.4L6.00004 9.14C5.40514 9.4764 4.91021 9.96472 4.56585 10.5551C4.22149 11.1454 4.04004 11.8166 4.04004 12.5C4.04004 13.1834 4.22149 13.8546 4.56585 14.4449C4.91021 15.0353 5.40514 15.5236 6.00004 15.86L30.36 29.58C30.856 29.865 31.418 30.0149 31.99 30.0149C32.5621 30.0149 33.1241 29.865 33.62 29.58L42 24.86Z" stroke="#99A1AF" stroke-width="3.99935" stroke-linecap="round" stroke-linejoin="round"/>
</svg>
