<svg width="20" height="20" viewBox="0 0 20 20" fill="none" xmlns="http://www.w3.org/2000/svg">
<path d="M7.08175 12.0806C7.63416 12.0806 8.16394 11.8612 8.55455 11.4705C8.94515 11.0799 9.1646 10.5502 9.1646 9.99775C9.1646 8.84802 8.74803 8.33147 8.33146 7.49834C7.43834 5.71292 8.14484 4.1208 9.99773 2.49951C10.4143 4.58236 11.664 6.58189 13.3303 7.91491C14.9966 9.24793 15.8297 10.8309 15.8297 12.4972C15.8297 13.263 15.6788 14.0214 15.3858 14.729C15.0927 15.4365 14.6631 16.0794 14.1216 16.621C13.58 17.1625 12.9371 17.5921 12.2295 17.8852C11.522 18.1783 10.7636 18.3291 9.99773 18.3291C9.23187 18.3291 8.4735 18.1783 7.76594 17.8852C7.05837 17.5921 6.41546 17.1625 5.87391 16.621C5.33237 16.0794 4.90279 15.4365 4.6097 14.729C4.31662 14.0214 4.16577 13.263 4.16577 12.4972C4.16577 11.5366 4.52652 10.5859 4.99891 9.99775C4.99891 10.5502 5.21835 11.0799 5.60896 11.4705C5.99957 11.8612 6.52935 12.0806 7.08175 12.0806Z" stroke="#FB2C36" stroke-width="1.66628" stroke-linecap="round" stroke-linejoin="round"/>
</svg>
