<svg width="20" height="20" viewBox="0 0 20 20" fill="none" xmlns="http://www.w3.org/2000/svg">
<path d="M12.4971 17.4958V10.8307C12.4971 10.6097 12.4093 10.3978 12.2531 10.2416C12.0969 10.0853 11.8849 9.99756 11.664 9.99756H8.33143C8.11047 9.99756 7.89856 10.0853 7.74231 10.2416C7.58607 10.3978 7.49829 10.6097 7.49829 10.8307V17.4958" stroke="white" stroke-width="1.66628" stroke-linecap="round" stroke-linejoin="round"/>
<path d="M2.49951 8.33141C2.49945 8.08903 2.55228 7.84955 2.6543 7.62968C2.75632 7.40981 2.90508 7.21484 3.09021 7.05838L8.92217 2.06039C9.22292 1.80621 9.60397 1.66675 9.99775 1.66675C10.3915 1.66675 10.7726 1.80621 11.0733 2.06039L16.9053 7.05838C17.0904 7.21484 17.2392 7.40981 17.3412 7.62968C17.4432 7.84955 17.496 8.08903 17.496 8.33141V15.8297C17.496 16.2716 17.3204 16.6954 17.0079 17.0079C16.6955 17.3204 16.2716 17.4959 15.8297 17.4959H4.16579C3.72386 17.4959 3.30004 17.3204 2.98755 17.0079C2.67507 16.6954 2.49951 16.2716 2.49951 15.8297V8.33141Z" stroke="white" stroke-width="1.66628" stroke-linecap="round" stroke-linejoin="round"/>
</svg>
