<svg width="40" height="40" viewBox="0 0 40 40" fill="none" xmlns="http://www.w3.org/2000/svg">
<path d="M13.3331 36.666C14.2536 36.666 14.9997 35.9199 14.9997 34.9994C14.9997 34.0789 14.2536 33.3328 13.3331 33.3328C12.4126 33.3328 11.6665 34.0789 11.6665 34.9994C11.6665 35.9199 12.4126 36.666 13.3331 36.666Z" stroke="#99A1AF" stroke-width="3.33328" stroke-linecap="round" stroke-linejoin="round"/>
<path d="M31.6661 36.666C32.5866 36.666 33.3328 35.9199 33.3328 34.9994C33.3328 34.0789 32.5866 33.3328 31.6661 33.3328C30.7457 33.3328 29.9995 34.0789 29.9995 34.9994C29.9995 35.9199 30.7457 36.666 31.6661 36.666Z" stroke="#99A1AF" stroke-width="3.33328" stroke-linecap="round" stroke-linejoin="round"/>
<path d="M3.41661 3.41663H6.74989L11.1831 24.1163C11.3458 24.8744 11.7676 25.552 12.376 26.0327C12.9844 26.5133 13.7413 26.7668 14.5164 26.7495H30.8161C31.5747 26.7483 32.3102 26.4884 32.9011 26.0126C33.492 25.5369 33.903 24.8738 34.0661 24.1329L36.816 11.7498H8.53319" stroke="#99A1AF" stroke-width="3.33328" stroke-linecap="round" stroke-linejoin="round"/>
</svg>
