<svg width="80" height="80" viewBox="0 0 80 80" fill="none" xmlns="http://www.w3.org/2000/svg">
<path d="M33.1228 51.6658C32.8252 50.5123 32.2239 49.4595 31.3815 48.6171C30.5391 47.7748 29.4864 47.1735 28.3328 46.8759L7.88319 41.6027C7.5343 41.5036 7.22724 41.2935 7.00858 41.0042C6.78993 40.7148 6.67163 40.362 6.67163 39.9994C6.67163 39.6367 6.78993 39.2839 7.00858 38.9946C7.22724 38.7052 7.5343 38.4951 7.88319 38.396L28.3328 33.1195C29.486 32.8222 30.5384 32.2214 31.3808 31.3796C32.2231 30.5379 32.8246 29.4858 33.1228 28.3329L38.396 7.88325C38.494 7.53298 38.7039 7.2244 38.9937 7.00458C39.2835 6.78476 39.6372 6.66577 40.001 6.66577C40.3647 6.66577 40.7184 6.78476 41.0082 7.00458C41.298 7.2244 41.5079 7.53298 41.6059 7.88325L46.8758 28.3329C47.1734 29.4864 47.7747 30.5392 48.6171 31.3816C49.4595 32.224 50.5122 32.8252 51.6658 33.1228L72.1154 38.3927C72.4671 38.4897 72.7772 38.6994 72.9982 38.9896C73.2192 39.2798 73.3389 39.6346 73.3389 39.9994C73.3389 40.3641 73.2192 40.7189 72.9982 41.0091C72.7772 41.2993 72.4671 41.509 72.1154 41.606L51.6658 46.8759C50.5122 47.1735 49.4595 47.7748 48.6171 48.6171C47.7747 49.4595 47.1734 50.5123 46.8758 51.6658L41.6026 72.1155C41.5046 72.4657 41.2947 72.7743 41.0049 72.9941C40.7151 73.2139 40.3614 73.3329 39.9976 73.3329C39.6339 73.3329 39.2802 73.2139 38.9904 72.9941C38.7006 72.7743 38.4907 72.4657 38.3927 72.1155L33.1228 51.6658Z" stroke="#F54900" stroke-width="4.99991" stroke-linecap="round" stroke-linejoin="round"/>
<path d="M66.6655 9.99988V23.333" stroke="#F54900" stroke-width="4.99991" stroke-linecap="round" stroke-linejoin="round"/>
<path d="M73.3321 16.6664H59.999" stroke="#F54900" stroke-width="4.99991" stroke-linecap="round" stroke-linejoin="round"/>
<path d="M13.3331 56.6656V63.3322" stroke="#F54900" stroke-width="4.99991" stroke-linecap="round" stroke-linejoin="round"/>
<path d="M16.6664 59.9989H9.99982" stroke="#F54900" stroke-width="4.99991" stroke-linecap="round" stroke-linejoin="round"/>
</svg>
